{"title":"WWE MONDAY NIGHT RAW 02 01 2012 hdtv Bzingaz.flv","uid":6930772,"size":605051282,"categoryP":"video","categoryS":"tv_shows","magnet":"?xt=urn:btih:a09337bd837e56b05a2d04d8f68023bc170c2d7a&amp;dn=WWE+MONDAY+NIGHT+RAW+02+01+2012+hdtv+Bzingaz.flv&amp;tr=udp%3A%2F%2Ftracker.openbittorrent.com%3A80&amp;tr=udp%3A%2F%2Fopen.demonii.com%3A1337&amp;tr=udp%3A%2F%2Ftracker.coppersurfer.tk%3A6969&amp;tr=udp%3A%2F%2Fexodus.desync.com%3A6969","seeders":0,"leechers":1,"uploader":"bzingaz","files":1,"time":1325656170,"description":"WWE MONDAY NIGHT RAW 02 01 2012 IN MKV FORMAT .       Download**Enjoy**Seed\n\n\nSCREENSHOTS:\n               &lt;a href=&quot;\nhttp://image.bayimg.com/balfnaadl.jpg&quot; rel=&quot;nofollow&quot; target=&quot;_NEW&quot;&gt;\nhttp://image.bayimg.com/balfnaadl.jpg&lt;/a&gt;\n               &lt;a href=&quot;\nhttp://image.bayimg.com/balfoaadl.jpg&quot; rel=&quot;nofollow&quot; target=&quot;_NEW&quot;&gt;\nhttp://image.bayimg.com/balfoaadl.jpg&lt;/a&gt;\n     \n\n\nDETAILS ARE:\n\n\nWWE MONDAY NIGHT RAW 02 01 2012 hdtv Bzingaz.flv\n\nFormat                           : Flash Video\nFile size                        : 577 MiB\nDuration                         : 1h 31mn\nOverall bit rate                 : 884 Kbps\n\n\nVideo\nFormat                           : AVC\nFormat/Info                      : Advanced Video Codec\nFormat profile                   : &lt;a class=&quot;__cf_email__&quot; href=&quot;/cdn-cgi/l/email-protection&quot; data-cfemail=&quot;236e424a4d636f100d13&quot;&gt;[email&amp;#160;protected]&lt;/a&gt;&lt;script cf-hash='f9e31' type=&quot;text/javascript&quot;&gt;\n/* &lt;![CDATA[ */!function(){try{var t=&quot;currentScript&quot;in document?document.currentScript:function(){for(var t=document.getElementsByTagName(&quot;script&quot;),e=t.length;e--;)if(t[e].getAttribute(&quot;cf-hash&quot;))return t[e]}();if(t&amp;&amp;t.previousSibling){var e,r,n,i,c=t.previousSibling,a=c.getAttribute(&quot;data-cfemail&quot;);if(a){for(e=&quot;&quot;,r=parseInt(a.substr(0,2),16),n=2;a.length-n;n+=2)i=parseInt(a.substr(n,2),16)^r,e+=String.fromCharCode(i);e=document.createTextNode(e),c.parentNode.replaceChild(e,c)}}}catch(u){}}();/* ]]&gt; */&lt;/script&gt;\nFormat settings, CABAC           : Yes\nFormat settings, ReFrames        : 3 frames\nFormat settings, GOP             : M=1, N=50\nCodec ID                         : 7\nDuration                         : 1h 31mn\nBit rate                         : 747 Kbps\nWidth                            : 626 pixels\nHeight                           : 360 pixels\nDisplay aspect ratio             : 16:9\nFrame rate mode                  : Constant\nFrame rate                       : 25.000 fps\nColor space                      : YUV\nChroma subsampling               : 4:2:0\nBit depth                        : 8 bits\nScan type                        : Progressive\nBits/(Pixel*Frame)               : 0.133\nStream size                      : 488 MiB (85%)\n\nAudio\nFormat                           : AAC\nFormat/Info                      : Advanced Audio Codec\nFormat profile                   : LC\nCodec ID                         : 10\nDuration                         : 1h 31mn\nBit rate                         : 129 Kbps\nChannel(s)                       : 2 channels\nChannel positions                : Front: L R\nSampling rate                    : 44.1 KHz\nCompression mode                 : Lossy\nStream size                      : 84.0 MiB (15%)\n","torrent":{"xt":"urn:btih:a09337bd837e56b05a2d04d8f68023bc170c2d7a","amp;dn":"WWE+MONDAY+NIGHT+RAW+02+01+2012+hdtv+Bzingaz.flv","amp;tr":["udp%3A%2F%2Ftracker.openbittorrent.com%3A80","udp%3A%2F%2Fopen.demonii.com%3A1337","udp%3A%2F%2Ftracker.coppersurfer.tk%3A6969","udp%3A%2F%2Fexodus.desync.com%3A6969"],"infoHash":"a09337bd837e56b05a2d04d8f68023bc170c2d7a","infoHashBuffer":{"type":"Buffer","data":[160,147,55,189,131,126,86,176,90,45,4,216,246,128,35,188,23,12,45,122]},"announce":[],"urlList":[]}}